<svg xmlns="http://www.w3.org/2000/svg" width="1951.63" height="762.807">
    <defs>
        <clipPath id="a">
            <path d="M0 1200h1600V0H0v1200z" />
        </clipPath>
        <clipPath id="b">
            <path d="M173.12 615.73c-3.393-139.336 276.695-259.182 625.595-267.684 348.904-8.5 634.496 97.562 637.89 236.897C1440 724.28 1159.912 844.123 811.01 852.626c-13.138.32-26.13.478-39.077.477C441.058 853.09 176.39 749.82 173.12 615.73" />
        </clipPath>
    </defs>
    <g clip-path="url(#a)" transform="matrix(1.25 0 0 -1.25 -31.73 1132.97)">
        <path d="M1585.533 717.638c23.252-155.728-306.893-334.076-737.396-398.354-430.503-64.278-798.343 9.854-821.595 165.58C3.29 640.59 333.432 818.94 763.936 883.218c430.505 64.278 798.343-9.854 821.597-165.58" fill="red" />
    </g>
    <g clip-path="url(#b)" transform="matrix(1.25 0 0 -1.25 -31.73 1132.97)">
        <path d="M1607.66 707.302c27.635-185.09-305.44-388.212-743.945-453.683C425.21 188.143 47.33 285.11 19.695 470.2-7.943 655.29 325.132 858.41 763.635 923.885c438.506 65.473 816.385-31.495 844.024-216.583" />
    </g>
    <path d="M529.598 306.217c0 12.193-3.01 21.997-9.033 29.417-6.02 7.42-14.25 11.127-24.686 11.127-6.69 0-13.115-2.407-19.268-7.225-7.225-5.62-10.838-12.305-10.838-20.07 0-7.226 1.468-12.576 4.415-16.057 2.942-3.474 4.145-6.152 3.612-8.027-.803-2.14-2.145-3.21-4.014-3.21-3.482 0-8.57 3.08-15.255 9.232-3.75 3.48-6.824 6.56-9.232 9.234-4.817 5.356-8.63 13.384-11.44 24.085-2.81 10.707-4.214 22.216-4.214 34.52v67.84h50.176v34.525h-150.13V437.08h36.13V301.804h-37.735v-35.726h101.558v34.12l6.046-7.627c9.67-10.7 18.466-17.995 26.393-21.877 7.93-3.877 16.057-5.822 24.387-5.822 2.42.804 4.302 1.206 5.645 1.206 10.743 1.06 19.676 5.5 26.8 13.316 7.12 7.815 10.682 16.758 10.682 26.825m209.478 63.826c0-25.42-4.013-43.152-12.042-53.187-8.03-10.037-21.01-15.055-38.938-15.055-12.312 0-22.347 5.49-30.106 16.46-8.83 12.58-13.246 30.91-13.246 54.994 0 25.96 4.546 43.892 13.647 53.79 6.958 7.765 18.065 11.64 33.32 11.64 15.516 0 27.026-4.678 34.52-14.05 8.563-10.7 12.846-28.902 12.846-54.592m65.833-4.013c0 34.256-8.814 61.352-26.426 81.285-17.618 19.94-41.353 29.904-71.208 29.904-10.492 0-18.828-1.205-25.013-3.61-8.342-3.215-19.77-10.57-34.29-22.08l-3.23-2.41v92.326h50.177v37.735H543.988v-37.733h38.535V301.803h-41.345v-35.726h103.565v29.303l14.45-15.254c6.956-6.957 15.054-11.906 24.286-14.854 9.233-2.94 20.134-4.416 32.715-4.416 27.028 0 48.835 10.438 65.43 31.31 15.52 19.54 23.284 44.156 23.284 73.863m110.754-160.97c0 9.635-3.348 17.8-10.035 24.487-6.69 6.692-14.85 10.036-24.486 10.036-9.635 0-17.8-3.344-24.488-10.036-6.692-6.687-10.034-14.852-10.034-24.487 0-9.633 3.342-17.793 10.035-24.486 6.687-6.686 14.852-10.035 24.487-10.035 9.634 0 17.794 3.35 24.486 10.034 6.688 6.693 10.036 14.853 10.036 24.486m32.917 265.74H811.296v-34.925h41.747V301.803h-39.34v-35.726h103.165l.403 169.798h31.31V470.8zm153.028 100.353h-30.105l.4-393.39h29.305l.4 393.39zm273.855-161.37c0 19.538-5.488 34.792-16.457 45.762-12.043 12.042-29.705 18.065-52.988 18.065-27.033 0-44.827-6.957-53.388-20.875-5.357-8.83-8.028-24.888-8.028-48.17V300.597h-32.114v-35.324h16.86c7.758 0 14.313-1.536 19.67-4.616 5.35-3.074 10.435-8.09 15.253-15.054 3.475-4.546 5.682-9.162 6.624-13.848.934-4.68 1.404-11.04 1.404-19.068v-19.67h34.52v73.46h56.2v34.12h-56.2V408.58c0 9.633.403 15.655 1.22 18.062 2.163 6.424 6.76 9.635 13.8 9.635 1.892 0 3.38-.13 4.463-.4 6.76-1.067 11.498-4.55 14.206-10.44 1.894-4.275 2.842-10.435 2.842-18.464V391.72h32.112v18.063zm239.816-109.586h-24.084l-61.825 171.406h-66.233l-64.22-171.406h-19.67v-34.12h115.207v34.12h-29.705l43.195 119.59 43.56-119.572-30.96-.018v-34.12h94.735v34.12z" fill="#fff" />
</svg>
